# xmcd
#
# Track frame offsets:
#	150
#	15582
#	28992
#	40555
#	55380
#	71512
#	87172
#	99717
#	116672
#	131295
#	150777
#
# Disc length: 2167 seconds
#
# Revision: 2
# Processed by: cddbd v1.5.2PL0 Copyright (c) Steve Scherf et al.
# Submitted via: EasyCDDAExtractor 10.0.3.1
#
DISCID=8108750b
DTITLE=Michael Jackson - The Best of
DYEAR=2003
DGENRE=Pop
TTITLE0=Got To Be There
TTITLE1=I Wanna Be Where You Are
TTITLE2=Rockin' Robin
TTITLE3=People Make The World Go Round
TTITLE4=With A Child's Heart
TTITLE5=Happy (Love Theme from Lady Sings The Blues)
TTITLE6=Ben
TTITLE7=We're Almost There
TTITLE8=Just A Little Bit of You
TTITLE9=One Day In Your Life
TTITLE10=Music and Me
EXTD=
EXTT0=
EXTT1=
EXTT2=
EXTT3=
EXTT4=
EXTT5=
EXTT6=
EXTT7=
EXTT8=
EXTT9=
EXTT10=
PLAYORDER=
